<?xml version="1.0" standalone="no"?>
<!DOCTYPE svg PUBLIC "-//W3C//DTD SVG 20010904//EN"
 "http://www.w3.org/TR/2001/REC-SVG-20010904/DTD/svg10.dtd">
<svg version="1.0" xmlns="http://www.w3.org/2000/svg"
 width="700.000000pt" height="700.000000pt" viewBox="0 0 700.000000 700.000000"
 preserveAspectRatio="xMidYMid meet">
<metadata>
Created by potrace 1.14, written by Peter Selinger 2001-2017
</metadata>
<g transform="translate(0.000000,700.000000) scale(0.100000,-0.100000)"
fill="#000000" stroke="none">
<path d="M4257 5584 c-3 -3 -236 -5 -519 -5 -292 0 -534 -4 -559 -10 -65 -14
-159 -63 -203 -106 -52 -51 -81 -98 -128 -212 -22 -53 -45 -107 -51 -121 -6
-14 -11 -27 -12 -30 -1 -3 -6 -16 -12 -30 -115 -269 -118 -280 -118 -386 0
-95 2 -103 37 -176 33 -66 59 -97 213 -249 96 -96 175 -176 175 -179 0 -3
-147 -5 -328 -6 -290 0 -350 -3 -412 -16 -43 -10 -131 -63 -174 -105 -52 -52
-76 -94 -131 -229 -20 -49 -46 -109 -57 -134 -12 -25 -21 -51 -21 -57 0 -7 -4
-13 -9 -13 -4 0 -8 -6 -8 -13 0 -7 -16 -49 -35 -94 -46 -111 -58 -157 -57
-229 2 -151 36 -210 248 -425 96 -96 174 -177 174 -180 0 -2 -94 -4 -210 -4
-115 0 -210 -2 -211 -5 0 -3 -2 -14 -5 -25 -2 -11 -6 -51 -10 -90 -3 -38 -7
-83 -9 -100 -2 -16 -6 -68 -10 -114 -4 -46 -8 -93 -10 -103 -2 -10 -7 -55 -10
-99 -4 -45 -8 -89 -10 -99 -2 -9 -6 -54 -10 -101 -4 -46 -9 -102 -11 -124 -2
-22 -6 -65 -9 -95 -8 -102 -16 -174 -21 -181 -2 -4 2 -11 9 -16 15 -11 1982
-10 2047 1 135 24 256 126 315 266 10 25 26 63 36 85 9 22 36 87 59 145 23 58
46 111 52 117 6 7 8 13 5 13 -3 0 6 26 20 57 62 139 62 265 1 388 -23 46 -70
101 -206 238 -98 98 -178 179 -179 181 -1 1 134 2 300 1 357 0 418 5 501 45
112 54 188 149 241 300 4 10 36 86 49 115 7 17 18 42 25 58 6 15 15 37 21 50
9 21 31 76 35 87 1 3 7 19 15 35 67 157 61 305 -18 429 -14 23 -89 105 -166
183 -78 78 -154 155 -170 172 l-28 30 222 0 c122 0 224 1 225 3 4 4 17 117 30
268 3 36 8 85 11 110 8 73 12 121 19 200 4 41 8 91 10 110 5 51 15 158 21 215
2 28 6 70 9 95 3 25 7 71 10 102 l6 57 -249 0 c-137 0 -253 1 -258 2 -5 1 -13
1 -19 0 -24 -5 -457 -1 -464 3 -5 3 -11 3 -14 0z"/>
</g>
</svg>
