<svg width="76" height="76" viewBox="0 0 76 76" fill="none" xmlns="http://www.w3.org/2000/svg">
<path d="M0 38C0 17.0132 17.0132 0 38 0C58.9868 0 76 17.0132 76 38C76 58.9868 58.9868 76 38 76C17.0132 76 0 58.9868 0 38Z" fill="#F6F5F6"/>
<path d="M38.8711 50.6183L40.3505 59.5817L54.6803 51.7206L51.8085 47.8916L38.8711 50.6183Z" fill="#B5B4BC"/>
<path d="M56.4191 54.0991L22.4512 72.693C24.7428 73.7373 27.1504 74.5205 29.6741 75.1006L59.3199 57.9861L56.4191 54.0991Z" fill="#B5B4BC"/>
<path d="M36.0273 51.1982L20.7693 54.4181L11.0808 46.9341L1.94336 49.9799C4.93115 58.9722 11.1968 66.4852 19.3189 71.0684L37.6517 61.0318L36.0273 51.1982Z" fill="#B5B4BC"/>
<path d="M20.9727 28.8047L23.8444 32.6627L36.7818 29.936L35.3314 20.9727L20.9727 28.8047Z" fill="#B5B4BC"/>
<path d="M19.2331 26.455L57.6102 5.45352C55.6086 4.2642 53.5201 3.21993 51.2865 2.40771L16.3613 22.568L19.2331 26.455Z" fill="#B5B4BC"/>
<path d="M39.6244 29.3266L54.8824 26.1067L64.571 33.5907L75.1588 30.0808C73.1863 20.7693 67.7908 12.7052 60.3359 7.28076L38 19.493L39.6244 29.3266Z" fill="#B5B4BC"/>
<path d="M25.0049 35.9961L18.8594 37.9963L34.5235 61.7826L68.1724 17.981L64.4014 13.6299L34.5235 44.4961L25.0049 35.9961Z" fill="black"/>
<path d="M38 2.90076C47.3695 2.90076 56.1878 6.55573 62.8305 13.1695C69.4443 19.8122 73.0992 28.6305 73.0992 38C73.0992 47.3695 69.4443 56.1878 62.8305 62.8305C56.1878 69.4443 47.3695 73.0992 38 73.0992C28.6305 73.0992 19.8122 69.4443 13.1695 62.8305C6.55572 56.1878 2.90076 47.3695 2.90076 38C2.90076 28.6305 6.55572 19.8122 13.1695 13.1695C19.8122 6.55573 28.6305 2.90076 38 2.90076ZM38 0C17.0275 0 0 17.0275 0 38C0 58.9725 17.0275 76 38 76C58.9725 76 76 58.9725 76 38C76 17.0275 58.9725 0 38 0Z" fill="black"/>
</svg>
