<svg width="76" height="76" viewBox="0 0 76 76" fill="none" xmlns="http://www.w3.org/2000/svg">
<g clip-path="url(#clip0)">
<path d="M0 38C0 17.0132 17.0132 0 38 0C58.9868 0 76 17.0132 76 38C76 58.9868 58.9868 76 38 76C17.0132 76 0 58.9868 0 38Z" fill="#F6F5F6"/>
<path d="M56.7098 35.1284V41.4811L47.8334 55.5788L27.8472 55.0567L19.3189 41.5101V35.1574L2.32046 44.6719L1.16016 47.3696C5.33726 63.817 20.2472 76.0002 37.9999 76.0002C54.6792 76.0002 68.835 65.2674 73.9693 50.3284L74.2594 44.962L56.7098 35.1284Z" fill="#B5B4BC"/>
<path d="M50.1258 32.4884L49.2555 33.6197H47.8342H28.196H26.7746L25.9044 32.4884L22.1914 27.7021V40.6396L29.4723 52.1846L46.2677 52.6197L53.8097 40.6396V27.7312L50.1258 32.4884Z" fill="#B5B4BC"/>
<path d="M12.3281 10.0076L12.4732 10.4718L28.1953 30.7191H47.8335L63.5266 10.4427L63.3816 9.74656C56.6518 3.68397 47.7464 0 37.9999 0C28.1083 0 19.0869 3.8 12.3281 10.0076Z" fill="#B5B4BC"/>
<path d="M38 2.90076C47.3695 2.90076 56.1878 6.55573 62.8305 13.1695C69.4733 19.8122 73.0992 28.6015 73.0992 38C73.0992 47.3985 69.4443 56.1878 62.8305 62.8305C56.1878 69.4733 47.3985 73.0992 38 73.0992C28.6015 73.0992 19.8122 69.4443 13.1695 62.8305C6.52672 56.1878 2.90076 47.3985 2.90076 38C2.90076 28.6015 6.55573 19.8122 13.1695 13.1695C19.8122 6.55573 28.6305 2.90076 38 2.90076ZM38 0C17.0275 0 0 17.0275 0 38C0 58.9725 17.0275 76 38 76C58.9725 76 76 58.9725 76 38C76 17.0275 58.9725 0 38 0Z" fill="black"/>
<path d="M49.2263 46.9052C49.2263 45.3388 48.9073 43.8304 48.3271 42.467C47.4569 40.4365 46.0355 38.696 44.208 37.4777C42.4096 36.2594 40.205 35.5342 37.8554 35.5342C36.2889 35.5342 34.7805 35.8533 33.4172 36.4334C31.3866 37.3036 29.6462 38.725 28.4279 40.5525C27.2096 42.351 26.4844 44.5556 26.4844 46.9052H30.8355C30.8355 45.9189 31.0385 45.0197 31.3866 44.1785C31.9088 42.9311 32.808 41.8578 33.9393 41.0746C35.0706 40.3204 36.405 39.8853 37.8554 39.8853C38.8416 39.8853 39.7409 40.0884 40.5821 40.4365C41.8294 40.9586 42.9027 41.8578 43.6859 42.9891C44.4401 44.1204 44.8752 45.4548 44.8752 46.9052H49.2263Z" fill="black"/>
<path d="M30.8062 54.3312V46.9053H26.4551V54.3312" fill="black"/>
<path d="M44.875 46.9053V54.3312H49.2261V46.9053" fill="black"/>
<path d="M23.4668 52.2139V72.5772L37.8256 75.1299L52.1844 72.5772V52.2139H23.4668ZM39.7401 66.5726C39.7401 67.6169 38.8989 68.4581 37.8546 68.4581C36.8103 68.4581 35.9691 67.6169 35.9691 66.5726V61.3513C35.9691 60.307 36.8103 59.4658 37.8546 59.4658C38.8989 59.4658 39.7401 60.307 39.7401 61.3513V66.5726Z" fill="black"/>
<path d="M28.0513 15.432C28.1093 15.461 29.2987 16.0992 31.1261 16.7373C32.9536 17.3755 35.3903 18.0427 37.9719 18.0427C40.5536 18.0427 42.9322 17.3755 44.7017 16.7373C46.4712 16.0992 47.6315 15.461 47.6895 15.432C48.3857 15.0549 48.6467 14.1557 48.2406 13.4595C47.8635 12.7633 46.9643 12.5022 46.2681 12.9083L46.4711 13.2854L46.2681 12.9083L46.4711 13.2854L46.2681 12.9083C46.2391 12.9083 45.1948 13.4885 43.6284 14.0686C42.062 14.6198 39.9735 15.1709 37.9429 15.1709C35.8834 15.1709 33.7078 14.6198 32.0544 14.0396C31.2422 13.7496 30.546 13.4595 30.0818 13.2564C29.8498 13.1404 29.6467 13.0534 29.5307 12.9954C29.4727 12.9664 29.4147 12.9373 29.3857 12.9373L29.3566 12.9083L29.2116 13.1694L29.3566 12.9083L29.2116 13.1694L29.3566 12.9083C28.6605 12.5312 27.7612 12.8213 27.3841 13.5175C27.0651 14.1847 27.3261 15.0549 28.0513 15.432Z" fill="black"/>
</g>
<defs>
<clipPath id="clip0">
<path d="M0 38C0 17.0132 17.0132 0 38 0C58.9868 0 76 17.0132 76 38C76 58.9868 58.9868 76 38 76C17.0132 76 0 58.9868 0 38Z" fill="white"/>
</clipPath>
</defs>
</svg>
