<svg width="76" height="76" viewBox="0 0 76 76" fill="none" xmlns="http://www.w3.org/2000/svg">
<g clip-path="url(#clip0)">
<path d="M0 38C0 17.0132 17.0132 0 38 0C58.9868 0 76 17.0132 76 38C76 58.9868 58.9868 76 38 76C17.0132 76 0 58.9868 0 38Z" fill="#F6F5F6"/>
<path d="M17.1152 22.0458L26.4847 27.8763V34.6641H42.3519L40.4084 43.7145L30.0526 51.1695L33.3015 62.1634L50.445 61.2061L54.245 71.3588L55.0862 71.9389C67.5015 65.6733 76.0007 52.8229 76.0007 38C76.0007 17.0275 58.9733 0 38.0007 0C37.8847 0 37.7397 0 37.6236 0L31.9961 2.32061L17.1152 22.0458Z" fill="#B5B4BC"/>
<path d="M58.886 21.1758L52.7944 35.3895L26.6875 42.6414L27.8478 46.7025L57.7257 40.3208L67.5883 22.9162L58.886 21.1758Z" fill="black"/>
<path d="M74.5209 27.4415C71.5912 17.3468 64.6003 8.9636 55.4049 4.23535C52.5621 6.99108 50.7637 10.8491 50.7637 15.1132C50.7637 23.4384 57.5225 30.1972 65.8476 30.1972C69.0675 30.1682 72.0553 29.1529 74.5209 27.4415Z" fill="black"/>
<path d="M38 2.90076C47.3695 2.90076 56.1878 6.55573 62.8305 13.1695C69.4733 19.8122 73.0992 28.6015 73.0992 38C73.0992 47.3985 69.4443 56.1878 62.8305 62.8305C56.1878 69.4733 47.3985 73.0992 38 73.0992C28.6015 73.0992 19.8122 69.4443 13.1695 62.8305C6.55573 56.1878 2.90076 47.3695 2.90076 38C2.90076 28.6305 6.55573 19.8122 13.1695 13.1695C19.8122 6.55573 28.6305 2.90076 38 2.90076ZM38 0C17.0275 0 0 17.0275 0 38C0 58.9725 17.0275 76 38 76C58.9725 76 76 58.9725 76 38C76 17.0275 58.9725 0 38 0Z" fill="black"/>
</g>
<defs>
<clipPath id="clip0">
<path d="M0 38C0 17.0132 17.0132 0 38 0C58.9868 0 76 17.0132 76 38C76 58.9868 58.9868 76 38 76C17.0132 76 0 58.9868 0 38Z" fill="white"/>
</clipPath>
</defs>
</svg>
